<?xml version="1.0" standalone="no"?>
<!DOCTYPE svg PUBLIC "-//W3C//DTD SVG 20010904//EN"
 "http://www.w3.org/TR/2001/REC-SVG-20010904/DTD/svg10.dtd">
<svg version="1.0" xmlns="http://www.w3.org/2000/svg"
 width="300.000000pt" height="108.000000pt" viewBox="0 0 300.000000 108.000000"
 preserveAspectRatio="xMidYMid meet">
<metadata>
Created by potrace 1.10, written by Peter Selinger 2001-2011
</metadata>
<g transform="translate(0.000000,108.000000) scale(0.100000,-0.100000)"
fill="#000000" stroke="none">
<path d="M2438 1014 c-5 -4 -8 -21 -8 -38 0 -21 3 -27 11 -19 6 6 9 23 7 38
-2 15 -6 23 -10 19z"/>
<path d="M1984 885 c-9 -21 3 -45 21 -45 21 0 30 27 15 45 -16 19 -29 19 -36
0z"/>
<path d="M2114 844 c-10 -38 17 -61 51 -46 42 20 27 72 -22 72 -16 0 -25 -8
-29 -26z"/>
<path d="M2500 825 c0 -29 -26 -45 -74 -45 -19 0 -47 -5 -61 -12 -21 -9 -31
-9 -47 1 -11 7 -17 8 -13 2 3 -6 0 -11 -8 -11 -8 0 -17 10 -20 22 -4 12 -9 19
-12 16 -4 -3 -1 -17 6 -29 9 -17 9 -24 0 -27 -6 -2 -11 -8 -11 -12 0 -5 -12
-21 -26 -35 -14 -14 -24 -29 -21 -31 8 -8 50 17 69 41 10 13 32 25 50 28 148
24 172 25 192 11 11 -8 32 -14 47 -14 30 0 73 -43 83 -85 4 -16 16 -39 26 -52
15 -19 17 -30 9 -56 -5 -17 -9 -44 -9 -58 0 -15 -7 -32 -15 -39 -8 -7 -15 -25
-15 -41 0 -16 -5 -29 -11 -29 -17 0 -139 -128 -139 -145 0 -39 -99 -60 -173
-36 -33 11 -51 31 -28 31 12 0 123 101 117 107 -2 2 11 34 30 69 19 36 34 74
34 83 0 10 9 30 21 45 22 28 11 36 -15 11 -22 -22 -28 -18 -12 8 19 31 29 67
18 67 -5 0 -30 -20 -54 -45 -47 -47 -68 -56 -68 -29 0 19 56 74 75 74 19 0 38
27 25 35 -17 10 -98 -43 -115 -75 -13 -26 -42 -50 -59 -50 -13 0 -5 23 19 54
53 70 15 77 -51 10 -24 -26 -48 -44 -51 -40 -4 3 6 20 22 36 16 16 26 33 22
36 -12 12 -37 -5 -57 -39 -24 -41 -65 -66 -81 -50 -8 8 -2 22 21 51 18 22 29
45 25 51 -10 18 -39 -4 -79 -59 -53 -74 -87 -65 -50 13 12 26 21 33 35 30 11
-3 19 0 19 6 0 6 10 15 22 20 l23 8 -23 7 c-22 7 -23 9 -6 27 16 18 16 19 -4
19 -12 0 -26 -9 -32 -20 -6 -12 -21 -20 -35 -20 -14 0 -29 -8 -35 -19 -14 -27
-13 -30 12 -23 l22 5 -23 -31 c-12 -17 -33 -40 -48 -52 -47 -37 -59 -20 -18
28 14 17 25 37 25 46 0 29 -29 17 -76 -30 -51 -51 -70 -54 -28 -5 14 18 24 34
21 38 -12 11 -38 -7 -57 -40 -22 -38 -67 -64 -83 -48 -6 6 1 23 22 48 36 44
38 53 12 53 -20 0 -56 -38 -66 -69 -7 -22 -52 -44 -61 -30 -3 5 1 20 9 32 23
36 30 77 13 83 -21 8 -78 -21 -115 -60 -26 -26 -31 -38 -26 -59 12 -48 31 -53
65 -15 l31 33 -3 -30 c-4 -39 20 -44 56 -10 15 14 29 25 32 25 10 0 3 -29 -8
-33 -8 -4 -7 -6 4 -6 9 -1 23 -3 31 -7 8 -3 28 7 46 21 30 26 31 26 31 6 0
-32 14 -26 55 25 37 45 61 55 31 12 -19 -27 -21 -68 -3 -68 7 0 29 14 50 31
l37 30 -6 -29 c-9 -44 12 -49 62 -12 28 20 44 26 44 18 0 -29 21 -38 51 -22
16 8 29 19 29 24 0 6 5 10 10 10 6 0 10 -9 10 -20 0 -30 12 -25 54 26 38 46
62 55 32 12 -19 -27 -21 -68 -3 -68 8 0 24 11 37 25 28 30 36 31 43 5 7 -28
30 -25 67 10 18 17 34 30 36 30 9 0 -19 -46 -44 -72 -25 -27 -28 -28 -141 -28
-71 -1 -128 -6 -146 -14 -29 -12 -31 -11 -42 16 -12 27 -53 41 -53 18 0 -5 6
-10 13 -10 8 0 19 -12 26 -27 22 -49 6 -53 -179 -42 -91 5 -175 14 -188 19
-13 6 -28 7 -34 4 -6 -4 -63 -6 -127 -5 -64 0 -274 -8 -466 -19 -453 -26 -577
-31 -541 -22 25 6 27 9 14 20 -19 15 -45 6 -53 -17 -5 -16 -25 -19 -163 -25
-86 -4 -174 -12 -194 -17 -40 -10 -51 -34 -20 -43 9 -3 170 -10 357 -16 905
-27 1037 -30 1082 -20 31 7 49 7 58 0 13 -11 240 0 393 19 55 7 64 5 80 -12
25 -29 91 -57 135 -57 27 0 45 -7 64 -26 16 -16 33 -24 44 -21 11 3 22 1 25
-4 3 -5 27 -7 54 -3 43 6 49 4 60 -16 6 -12 14 -19 17 -16 3 3 0 12 -6 20 -14
17 -7 35 12 32 6 -1 41 -17 76 -35 34 -18 65 -30 68 -28 5 5 -85 57 -98 57
-14 0 -11 84 3 98 7 7 20 12 29 12 10 0 20 11 23 25 4 14 14 28 24 32 71 23
88 43 60 71 -13 13 5 42 28 42 20 0 26 17 13 38 -10 16 -9 28 5 63 10 24 21
50 24 58 4 11 0 13 -16 8 -26 -6 -52 15 -52 42 0 10 9 30 21 45 16 20 17 26 6
26 -8 0 -20 -7 -28 -16 -11 -14 -15 -13 -31 8 -9 13 -18 36 -18 52 0 28 -1 28
-18 13 -21 -19 -77 -23 -87 -6 -4 6 -7 26 -7 45 0 19 -4 34 -9 34 -5 0 -9 -11
-9 -25z m-860 -245 c-21 -30 -58 -60 -72 -60 -22 0 -3 33 34 60 52 38 65 38
38 0z m801 -164 c-18 -36 -49 -79 -69 -97 -26 -22 -29 -27 -12 -19 l25 13 -24
-27 c-32 -35 -99 -66 -142 -66 -48 0 -80 10 -72 23 4 7 0 8 -13 3 -10 -4 -15
-4 -12 0 4 4 -4 16 -18 27 -17 13 -22 23 -15 30 6 6 7 16 1 28 -8 15 -5 19 22
24 20 5 34 3 36 -3 2 -7 15 -9 33 -5 25 5 29 2 29 -16 0 -13 9 -25 24 -30 13
-5 26 -17 29 -25 6 -16 37 -23 37 -8 0 5 -13 21 -29 36 -28 27 -29 29 -15 62
17 40 17 44 4 44 -5 0 -10 -6 -10 -14 0 -24 -21 -30 -93 -31 -56 0 -65 2 -50
13 9 6 28 13 42 13 23 2 23 2 4 6 -12 2 -37 -3 -55 -12 l-33 -16 33 30 c34 33
37 33 178 35 91 1 91 1 81 -22 -21 -45 6 -35 55 21 28 32 53 55 56 53 3 -3 -9
-35 -27 -70z m-774 -46 c2 0 3 -3 3 -7 0 -16 -59 -8 -63 8 -4 14 0 16 27 8 17
-5 32 -9 33 -9z m-89 1 c8 -4 -18 -6 -60 -4 -40 3 -261 -5 -492 -17 -230 -12
-420 -19 -422 -17 -7 7 94 15 326 27 113 6 219 12 235 14 74 7 401 5 413 -3z
m9 -37 c2 -5 -3 -19 -11 -29 -14 -19 -26 -20 -318 -17 -167 1 -312 5 -323 7
-11 2 -53 4 -94 4 -110 1 -82 10 54 16 66 3 145 7 175 10 75 7 182 13 330 21
69 3 126 7 128 9 7 6 56 -11 59 -21z m476 6 c5 -4 6 -17 3 -28 -8 -23 -30 -27
-223 -38 l-113 -6 0 44 0 44 163 -4 c89 -2 166 -8 170 -12z m-400 -29 c-3 -63
-53 -71 -53 -8 0 40 7 49 35 45 16 -2 20 -10 18 -37z m46 30 c18 -12 3 -74
-19 -79 -12 -2 -14 7 -12 43 4 47 8 51 31 36z m-1161 -30 l4 -24 -138 6 c-75
4 -169 7 -207 7 -125 0 -60 15 116 26 222 15 221 15 225 -15z"/>
<path d="M2096 301 c-4 -5 13 -17 37 -26 34 -13 52 -14 78 -7 33 10 33 10 -18
11 -63 1 -91 10 -71 22 10 7 9 9 -4 9 -9 0 -19 -4 -22 -9z"/>
<path d="M2743 765 c-3 -9 -3 -18 0 -22 10 -10 37 6 37 22 0 20 -29 20 -37 0z"/>
<path d="M1349 748 c-23 -6 -42 -20 -53 -39 -10 -17 -16 -32 -14 -34 1 -2 31
6 66 17 34 12 65 19 68 16 10 -11 -59 -97 -88 -109 -28 -11 -37 -32 -18 -44 5
-3 1 -24 -12 -50 -12 -25 -19 -48 -15 -51 11 -11 35 15 47 51 10 31 13 33 71
37 66 5 100 24 137 79 28 41 24 94 -9 122 -24 19 -117 22 -180 5z m166 -52
c46 -33 -39 -116 -118 -116 -35 0 -32 21 4 31 15 4 18 7 7 8 -15 1 -14 7 10
46 29 48 60 58 97 31z"/>
<path d="M257 726 c-50 -18 -64 -32 -72 -67 -9 -40 4 -53 74 -73 74 -21 91
-38 54 -55 -38 -17 -158 -28 -149 -13 10 16 -17 15 -32 0 -21 -21 -14 -47 14
-54 41 -10 152 2 179 20 14 10 31 28 37 42 16 35 -18 68 -93 90 -33 10 -58 23
-56 28 6 18 53 37 109 43 l53 6 -25 -21 c-34 -29 -18 -27 31 4 59 37 50 58
-26 61 -33 2 -77 -4 -98 -11z"/>
<path d="M990 703 c-17 -21 -40 -64 -52 -96 -20 -56 -48 -87 -76 -87 -8 0 -2
14 17 37 53 64 35 98 -24 47 -26 -22 -27 -24 -7 -19 26 8 27 2 6 -30 -9 -14
-25 -25 -35 -25 -23 0 -25 13 -5 30 8 6 13 17 10 25 -3 7 8 29 25 48 30 33 39
57 24 57 -15 0 -33 -16 -58 -51 -48 -64 -107 -121 -117 -111 -7 7 -2 21 12 40
14 19 20 37 16 48 -6 15 -16 9 -63 -37 -54 -53 -59 -52 -21 3 44 63 5 65 -62
2 -53 -50 -67 -46 -24 5 25 30 25 31 5 31 -13 0 -30 -14 -46 -40 -26 -41 -59
-65 -75 -55 -17 10 -11 30 15 55 28 26 33 50 11 50 -22 0 -66 -58 -66 -86 0
-29 16 -64 30 -64 4 0 23 12 41 27 31 27 32 27 27 5 -3 -12 -2 -24 3 -27 9 -6
27 10 72 64 35 42 45 35 17 -12 -33 -56 -6 -57 52 -1 l50 49 -23 -42 c-19 -33
-21 -45 -12 -54 15 -15 41 1 106 67 l48 49 -50 -84 c-49 -82 -62 -121 -40
-121 5 0 19 21 31 48 26 60 22 56 59 43 29 -10 37 -8 70 13 l37 25 6 -24 c8
-31 41 -33 72 -4 l22 21 11 -21 c16 -29 53 -27 90 5 18 15 29 19 25 11 -3 -9
-13 -18 -22 -22 -15 -6 -15 -8 2 -21 25 -18 31 -18 52 3 16 16 16 16 10 -4 -6
-18 -3 -21 17 -19 33 4 47 14 47 36 0 22 -25 33 -49 21 -12 -7 -22 -4 -36 13
l-20 23 -33 -20 c-30 -18 -35 -18 -49 -4 -14 14 -12 17 24 35 48 25 67 47 59
67 -10 28 -47 16 -88 -27 -21 -24 -49 -53 -60 -66 -12 -12 -26 -21 -32 -19
-23 8 -16 38 22 89 35 47 62 104 62 129 0 21 -31 6 -60 -28z m6 -63 c-30 -46
-40 -51 -26 -15 15 40 44 79 48 66 2 -7 -8 -30 -22 -51z m124 -29 c0 -12 -51
-53 -58 -46 -6 6 38 55 50 55 4 0 8 -4 8 -9z"/>
<path d="M1866 715 c-3 -8 -16 -15 -29 -15 -28 0 -47 -17 -47 -43 0 -23 21
-18 35 9 14 26 58 24 88 -4 24 -23 47 -29 47 -13 0 6 -9 17 -21 25 -12 8 -18
19 -14 25 10 17 -6 36 -17 20 -7 -11 -11 -11 -15 -1 -6 16 -20 15 -27 -3z"/>
<path d="M486 685 c-9 -9 -16 -21 -16 -26 0 -16 38 -10 44 8 10 25 -9 37 -28
18z"/>
<path d="M2170 685 c-7 -8 -9 -22 -6 -31 5 -13 9 -14 21 -4 17 14 20 36 6 44
-5 3 -14 -1 -21 -9z"/>
<path d="M1235 670 c-4 -7 -3 -16 3 -22 14 -14 45 -2 40 15 -6 16 -34 21 -43
7z"/>
<path d="M1740 644 c0 -9 -9 -18 -20 -21 -11 -3 -20 -9 -20 -14 0 -14 13 -10
38 10 23 20 29 41 12 41 -5 0 -10 -7 -10 -16z"/>
<path d="M2852 647 c-16 -19 2 -40 27 -32 27 8 29 45 2 45 -10 0 -23 -6 -29
-13z"/>
<path d="M2770 441 c23 -13 87 -25 75 -13 -5 5 -28 12 -50 16 -26 4 -35 3 -25
-3z"/>
<path d="M2878 352 c-30 -18 -34 -27 -18 -37 9 -5 90 40 90 50 0 11 -47 3 -72
-13z"/>
<path d="M2550 242 c1 -19 50 -60 50 -42 0 19 -19 47 -35 54 -10 3 -15 0 -15
-12z"/>
<path d="M1896 234 c-22 -21 -20 -51 4 -64 43 -23 92 20 70 60 -13 24 -52 26
-74 4z"/>
<path d="M2590 162 c0 -15 24 -32 47 -32 28 0 30 16 4 30 -23 12 -51 13 -51 2z"/>
</g>
</svg>
